#tb 0: 1/10
#media_type 0: video
#codec_id 0: rawvideo
#dimensions 0: 200x200
#sar 0: 0/1
0,          0,          0,        1,   120000, 0x34ac91d2
0,          1,          1,        1,   120000, 0x17150729
0,          2,          2,        1,   120000, 0xc3f510bb
0,          3,          3,        1,   120000, 0xb3b14a3b
0,          4,          4,        1,   120000, 0x26a7f3d1
0,          5,          5,        1,   120000, 0xd161af6f
0,          6,          6,        1,   120000, 0x459fc92d
0,          7,          7,        1,   120000, 0x05c3fa94
0,          8,          8,        1,   120000, 0x6630cd8c
0,          9,          9,        1,   120000, 0x60cd39d4
0,         10,         10,        1,   120000, 0xc8854d1c
0,         11,         11,        1,   120000, 0xe55e8e6d
0,         12,         12,        1,   120000, 0xbeab201f
0,         13,         13,        1,   120000, 0x70744b0b
0,         14,         14,        1,   120000, 0x80dea5d0
0,         15,         15,        1,   120000, 0x769bfa1c
0,         16,         16,        1,   120000, 0x04e25bbe
0,         17,         17,        1,   120000, 0x48abc5a5
0,         18,         18,        1,   120000, 0xda5c4e2a
0,         19,         19,        1,   120000, 0x8de96d38
0,         20,         20,        1,   120000, 0xe96418b0
0,         21,         21,        1,   120000, 0x1c2f272b
0,         22,         22,        1,   120000, 0x4b755804
0,         23,         23,        1,   120000, 0xc92f96fd
0,         24,         24,        1,   120000, 0x69e90ebb
0,         25,         25,        1,   120000, 0x78d4bd1a
0,         26,         26,        1,   120000, 0xaf2edf55
0,         27,         27,        1,   120000, 0x94161c78
0,         28,         28,        1,   120000, 0x1109094d
0,         29,         29,        1,   120000, 0xc61b0392
0,         30,         30,        1,   120000, 0xc157d003
0,         31,         31,        1,   120000, 0xf2747e7b
0,         32,         32,        1,   120000, 0xa36299c2
0,         33,         33,        1,   120000, 0x49bc788c
0,         34,         34,        1,   120000, 0x3bee336e
0,         35,         35,        1,   120000, 0xa316b9d1
0,         36,         36,        1,   120000, 0x5cc32e9c
0,         37,         37,        1,   120000, 0x9f7eca16
0,         38,         38,        1,   120000, 0x958e2988
0,         39,         39,        1,   120000, 0xebcba2f1
0,         40,         40,        1,   120000, 0x281f1e60
0,         41,         41,        1,   120000, 0x82256c4d
0,         42,         42,        1,   120000, 0xddc8be56
0,         43,         43,        1,   120000, 0x64ff2ed0
0,         44,         44,        1,   120000, 0x3e63ab02
0,         45,         45,        1,   120000, 0x43f78b37
0,         46,         46,        1,   120000, 0xb7cc62d4
0,         47,         47,        1,   120000, 0x694f1764
0,         48,         48,        1,   120000, 0x2264c483
0,         49,         49,        1,   120000, 0xb6680b4a
0,         50,         50,        1,   120000, 0x2a92626a
0,         51,         51,        1,   120000, 0x8da02509
0,         52,         52,        1,   120000, 0xa976c382
0,         53,         53,        1,   120000, 0x749e822b
0,         54,         54,        1,   120000, 0xe9e7fc8c
0,         55,         55,        1,   120000, 0xfdc05a0c
0,         56,         56,        1,   120000, 0x7d5a856d
0,         57,         57,        1,   120000, 0xcc344937
0,         58,         58,        1,   120000, 0x9d90bc67
0,         59,         59,        1,   120000, 0x3f527712
0,         60,         60,        1,   120000, 0xf0f57f97
0,         61,         61,        1,   120000, 0xc29535cd
0,         62,         62,        1,   120000, 0x9a64598b
0,         63,         63,        1,   120000, 0x0d1ddf7c
0,         64,         64,        1,   120000, 0xb580ec24
0,         65,         65,        1,   120000, 0xf0db5bbc
0,         66,         66,        1,   120000, 0x6b980b61
0,         67,         67,        1,   120000, 0xc29f30b5
0,         68,         68,        1,   120000, 0xaf2c4bcd
0,         69,         69,        1,   120000, 0x1e725645
0,         70,         70,        1,   120000, 0x295c4c96
0,         71,         71,        1,   120000, 0x7ea121a2
0,         72,         72,        1,   120000, 0xdb9e9cec
0,         73,         73,        1,   120000, 0x1da47c80
0,         74,         74,        1,   120000, 0x9d0c1345
0,         75,         75,        1,   120000, 0x88058527
0,         76,         76,        1,   120000, 0x46766aed
0,         77,         77,        1,   120000, 0xba520bd3
0,         78,         78,        1,   120000, 0x7fb6373c
0,         79,         79,        1,   120000, 0x05a86f4d
0,         80,         80,        1,   120000, 0x7fb47cbd
0,         81,         81,        1,   120000, 0x6814d8ca
0,         82,         82,        1,   120000, 0x9c13acb8
0,         83,         83,        1,   120000, 0xad0edbfe
0,         84,         84,        1,   120000, 0x352fde81
0,         85,         85,        1,   120000, 0xa654b386
0,         86,         86,        1,   120000, 0xd3b3dc72
0,         87,         87,        1,   120000, 0x01572668
0,         88,         88,        1,   120000, 0x30189e03
0,         89,         89,        1,   120000, 0x26126d30
0,         90,         90,        1,   120000, 0x4f376c7d
0,         91,         91,        1,   120000, 0xd3667bcf
0,         92,         92,        1,   120000, 0x0b46b3d5
0,         93,         93,        1,   120000, 0x893415ef
0,         94,         94,        1,   120000, 0x99a78749
0,         95,         95,        1,   120000, 0x6da0d8e9
0,         96,         96,        1,   120000, 0x22d8ceb6
0,         97,         97,        1,   120000, 0x67ef9be8
0,         98,         98,        1,   120000, 0xb696fb53
0,         99,         99,        1,   120000, 0x70339dab
0,        100,        100,        1,   120000, 0xc1876efa
0,        101,        101,        1,   120000, 0x80e78c92
0,        102,        102,        1,   120000, 0x18d2f2ac
0,        103,        103,        1,   120000, 0x28be9ae4
0,        104,        104,        1,   120000, 0xc3c2c190
0,        105,        105,        1,   120000, 0xd6a859d8
0,        106,        106,        1,   120000, 0x40b9046d
0,        107,        107,        1,   120000, 0x7f8d5999
0,        108,        108,        1,   120000, 0x89724027
0,        109,        109,        1,   120000, 0x4c15c988
0,        110,        110,        1,   120000, 0x812ebe08
0,        111,        111,        1,   120000, 0x273ef8e2
0,        112,        112,        1,   120000, 0xe029de06
0,        113,        113,        1,   120000, 0x5846127c
0,        114,        114,        1,   120000, 0x6c5df8e3
0,        115,        115,        1,   120000, 0x7424919f
0,        116,        116,        1,   120000, 0xa8313015
0,        117,        117,        1,   120000, 0x28878ab4
0,        118,        118,        1,   120000, 0x126d0746
0,        119,        119,        1,   120000, 0xee3f7138
0,        120,        120,        1,   120000, 0xd4b2e0a1
0,        121,        121,        1,   120000, 0x8d60bfff
0,        122,        122,        1,   120000, 0x701c23d0
0,        123,        123,        1,   120000, 0x1cbb5654
0,        124,        124,        1,   120000, 0x0f5853e9
0,        125,        125,        1,   120000, 0x2a5c3339
0,        126,        126,        1,   120000, 0x86b00350
0,        127,        127,        1,   120000, 0xe8cc6931
0,        128,        128,        1,   120000, 0xf1cad983
0,        129,        129,        1,   120000, 0xabcd8704
0,        130,        130,        1,   120000, 0x89592f94
0,        131,        131,        1,   120000, 0x100486d9
0,        132,        132,        1,   120000, 0x60ef9e2d
0,        133,        133,        1,   120000, 0x2485176a
0,        134,        134,        1,   120000, 0x6b8c360d
0,        135,        135,        1,   120000, 0xe2e1bf4f
0,        136,        136,        1,   120000, 0xe17b65c3
0,        137,        137,        1,   120000, 0x2a42821a
0,        138,        138,        1,   120000, 0xbe9ddba7
0,        139,        139,        1,   120000, 0x19f937fe
0,        140,        140,        1,   120000, 0xb7e0c600
0,        141,        141,        1,   120000, 0xfbf8c5f6
0,        142,        142,        1,   120000, 0x93b62f93
0,        143,        143,        1,   120000, 0xb6ddec93
0,        144,        144,        1,   120000, 0xa04d031b
0,        145,        145,        1,   120000, 0x61c986c0
0,        146,        146,        1,   120000, 0x3516e54a
0,        147,        147,        1,   120000, 0x3489eb2c
0,        148,        148,        1,   120000, 0xb75a4827
0,        149,        149,        1,   120000, 0x76031a80
0,        150,        150,        1,   120000, 0x867c3969
0,        151,        151,        1,   120000, 0x9b63a093
0,        152,        152,        1,   120000, 0xcb253d8a
0,        153,        153,        1,   120000, 0x354ba3b2
0,        154,        154,        1,   120000, 0x4d5ead8c
0,        155,        155,        1,   120000, 0x7b7029ae
0,        156,        156,        1,   120000, 0x4765ab9d
0,        157,        157,        1,   120000, 0x747cdee9
0,        158,        158,        1,   120000, 0x20989b08
0,        159,        159,        1,   120000, 0x3a957085
0,        160,        160,        1,   120000, 0xdd49e8ad
0,        161,        161,        1,   120000, 0x00e89719
0,        162,        162,        1,   120000, 0x2822aa76
0,        163,        163,        1,   120000, 0x492388f3
0,        164,        164,        1,   120000, 0x4dffa6ee
0,        165,        165,        1,   120000, 0xc382bb83
0,        166,        166,        1,   120000, 0xb59aaa74
0,        167,        167,        1,   120000, 0x7c7885d3
0,        168,        168,        1,   120000, 0xc05ee219
0,        169,        169,        1,   120000, 0xc3df6b73
0,        170,        170,        1,   120000, 0x8ae31170
0,        171,        171,        1,   120000, 0xb979fdce
0,        172,        172,        1,   120000, 0xb8f9e407
0,        173,        173,        1,   120000, 0x56675b80
0,        174,        174,        1,   120000, 0x1aad1ce2
0,        175,        175,        1,   120000, 0xa050a52b
0,        176,        176,        1,   120000, 0x49f8c32f
0,        177,        177,        1,   120000, 0x8e7f4d2c
0,        178,        178,        1,   120000, 0x5c07f751
0,        179,        179,        1,   120000, 0x67fa5523
0,        180,        180,        1,   120000, 0xf38b933a
0,        181,        181,        1,   120000, 0xb113e202
0,        182,        182,        1,   120000, 0xb8d99ff4
0,        183,        183,        1,   120000, 0x15ab6cc6
0,        184,        184,        1,   120000, 0xd64a51c9
0,        185,        185,        1,   120000, 0x2088b53c
0,        186,        186,        1,   120000, 0xdd78d40a
0,        187,        187,        1,   120000, 0x2fb58848
0,        188,        188,        1,   120000, 0xf775d36a
0,        189,        189,        1,   120000, 0xa03987e9
0,        190,        190,        1,   120000, 0x457322ad
0,        191,        191,        1,   120000, 0x0f6c3d1c
0,        192,        192,        1,   120000, 0xbdf2f1a5
0,        193,        193,        1,   120000, 0x5828ee1d
